<mxfile host="app.diagrams.net" agent="Mozilla/5.0 (Windows NT 10.0; Win64; x64) AppleWebKit/537.36 (KHTML, like Gecko) Chrome/135.0.0.0 Safari/537.36" version="26.2.14">
  <diagram name="페이지-1" id="gB-FAqSu-B3ke2kAs8GE">
    <mxGraphModel dx="2066" dy="-32" grid="1" gridSize="10" guides="1" tooltips="1" connect="1" arrows="1" fold="1" page="1" pageScale="1" pageWidth="827" pageHeight="1169" math="0" shadow="0">
      <root>
        <mxCell id="0" />
        <mxCell id="1" parent="0" />
        <mxCell id="DztG8jWdw_vd6ydKxD23-209" value="" style="rounded=0;whiteSpace=wrap;html=1;strokeColor=none;" parent="1" vertex="1">
          <mxGeometry x="1100" y="1940" width="390" height="290" as="geometry" />
        </mxCell>
        <mxCell id="DztG8jWdw_vd6ydKxD23-167" value="" style="ellipse;shape=cloud;whiteSpace=wrap;html=1;" parent="1" vertex="1">
          <mxGeometry x="981" y="1380" width="520" height="400" as="geometry" />
        </mxCell>
        <mxCell id="DztG8jWdw_vd6ydKxD23-152" value="" style="rounded=0;whiteSpace=wrap;html=1;strokeColor=none;" parent="1" vertex="1">
          <mxGeometry x="270" y="2180" width="310" height="80" as="geometry" />
        </mxCell>
        <mxCell id="DztG8jWdw_vd6ydKxD23-26" value="" style="rounded=0;whiteSpace=wrap;html=1;strokeColor=none;" parent="1" vertex="1">
          <mxGeometry x="80" y="1390" width="360" height="300" as="geometry" />
        </mxCell>
        <mxCell id="DztG8jWdw_vd6ydKxD23-39" value="" style="endArrow=none;html=1;rounded=0;" parent="1" source="DztG8jWdw_vd6ydKxD23-32" target="DztG8jWdw_vd6ydKxD23-36" edge="1">
          <mxGeometry width="50" height="50" relative="1" as="geometry">
            <mxPoint x="230" y="1660" as="sourcePoint" />
            <mxPoint x="280" y="1610" as="targetPoint" />
          </mxGeometry>
        </mxCell>
        <mxCell id="DztG8jWdw_vd6ydKxD23-1" value="S" style="ellipse;whiteSpace=wrap;html=1;aspect=fixed;strokeWidth=3;" parent="1" vertex="1">
          <mxGeometry x="178" y="1400" width="40" height="40" as="geometry" />
        </mxCell>
        <mxCell id="DztG8jWdw_vd6ydKxD23-2" value="1" style="ellipse;whiteSpace=wrap;html=1;aspect=fixed;fillColor=#dae8fc;strokeColor=#6c8ebf;" parent="1" vertex="1">
          <mxGeometry x="298" y="1400" width="40" height="40" as="geometry" />
        </mxCell>
        <mxCell id="DztG8jWdw_vd6ydKxD23-3" value="4" style="ellipse;whiteSpace=wrap;html=1;aspect=fixed;strokeWidth=3;" parent="1" vertex="1">
          <mxGeometry x="178" y="1580" width="40" height="40" as="geometry" />
        </mxCell>
        <mxCell id="DztG8jWdw_vd6ydKxD23-4" value="3" style="ellipse;whiteSpace=wrap;html=1;aspect=fixed;fillColor=#dae8fc;strokeColor=#6c8ebf;" parent="1" vertex="1">
          <mxGeometry x="298" y="1580" width="40" height="40" as="geometry" />
        </mxCell>
        <mxCell id="DztG8jWdw_vd6ydKxD23-5" value="2" style="ellipse;whiteSpace=wrap;html=1;aspect=fixed;strokeWidth=3;" parent="1" vertex="1">
          <mxGeometry x="338" y="1490" width="40" height="40" as="geometry" />
        </mxCell>
        <mxCell id="DztG8jWdw_vd6ydKxD23-6" value="5" style="ellipse;whiteSpace=wrap;html=1;aspect=fixed;fillColor=#dae8fc;strokeColor=#6c8ebf;" parent="1" vertex="1">
          <mxGeometry x="138" y="1490" width="40" height="40" as="geometry" />
        </mxCell>
        <mxCell id="DztG8jWdw_vd6ydKxD23-15" value="" style="endArrow=none;html=1;rounded=0;" parent="1" source="DztG8jWdw_vd6ydKxD23-6" target="DztG8jWdw_vd6ydKxD23-4" edge="1">
          <mxGeometry width="50" height="50" relative="1" as="geometry">
            <mxPoint x="368" y="1640" as="sourcePoint" />
            <mxPoint x="418" y="1590" as="targetPoint" />
          </mxGeometry>
        </mxCell>
        <mxCell id="DztG8jWdw_vd6ydKxD23-16" value="" style="endArrow=none;html=1;rounded=0;" parent="1" source="DztG8jWdw_vd6ydKxD23-6" target="DztG8jWdw_vd6ydKxD23-5" edge="1">
          <mxGeometry width="50" height="50" relative="1" as="geometry">
            <mxPoint x="368" y="1640" as="sourcePoint" />
            <mxPoint x="418" y="1590" as="targetPoint" />
          </mxGeometry>
        </mxCell>
        <mxCell id="DztG8jWdw_vd6ydKxD23-17" value="" style="endArrow=none;html=1;rounded=0;strokeWidth=3;" parent="1" source="DztG8jWdw_vd6ydKxD23-5" target="DztG8jWdw_vd6ydKxD23-1" edge="1">
          <mxGeometry width="50" height="50" relative="1" as="geometry">
            <mxPoint x="368" y="1640" as="sourcePoint" />
            <mxPoint x="418" y="1590" as="targetPoint" />
          </mxGeometry>
        </mxCell>
        <mxCell id="DztG8jWdw_vd6ydKxD23-18" value="" style="endArrow=none;html=1;rounded=0;" parent="1" source="DztG8jWdw_vd6ydKxD23-3" target="DztG8jWdw_vd6ydKxD23-2" edge="1">
          <mxGeometry width="50" height="50" relative="1" as="geometry">
            <mxPoint x="368" y="1640" as="sourcePoint" />
            <mxPoint x="318" y="1420" as="targetPoint" />
          </mxGeometry>
        </mxCell>
        <mxCell id="DztG8jWdw_vd6ydKxD23-19" value="" style="endArrow=none;html=1;rounded=0;" parent="1" source="DztG8jWdw_vd6ydKxD23-3" target="DztG8jWdw_vd6ydKxD23-1" edge="1">
          <mxGeometry width="50" height="50" relative="1" as="geometry">
            <mxPoint x="368" y="1640" as="sourcePoint" />
            <mxPoint x="418" y="1590" as="targetPoint" />
          </mxGeometry>
        </mxCell>
        <mxCell id="DztG8jWdw_vd6ydKxD23-21" value="" style="endArrow=none;html=1;rounded=0;" parent="1" source="DztG8jWdw_vd6ydKxD23-3" target="DztG8jWdw_vd6ydKxD23-6" edge="1">
          <mxGeometry width="50" height="50" relative="1" as="geometry">
            <mxPoint x="368" y="1640" as="sourcePoint" />
            <mxPoint x="418" y="1590" as="targetPoint" />
          </mxGeometry>
        </mxCell>
        <mxCell id="DztG8jWdw_vd6ydKxD23-22" value="" style="endArrow=none;html=1;rounded=0;" parent="1" source="DztG8jWdw_vd6ydKxD23-3" target="DztG8jWdw_vd6ydKxD23-4" edge="1">
          <mxGeometry width="50" height="50" relative="1" as="geometry">
            <mxPoint x="368" y="1630" as="sourcePoint" />
            <mxPoint x="418" y="1580" as="targetPoint" />
          </mxGeometry>
        </mxCell>
        <mxCell id="DztG8jWdw_vd6ydKxD23-23" value="" style="endArrow=none;html=1;rounded=0;" parent="1" source="DztG8jWdw_vd6ydKxD23-4" target="DztG8jWdw_vd6ydKxD23-5" edge="1">
          <mxGeometry width="50" height="50" relative="1" as="geometry">
            <mxPoint x="368" y="1640" as="sourcePoint" />
            <mxPoint x="418" y="1590" as="targetPoint" />
          </mxGeometry>
        </mxCell>
        <mxCell id="DztG8jWdw_vd6ydKxD23-24" value="" style="endArrow=none;html=1;rounded=0;" parent="1" source="DztG8jWdw_vd6ydKxD23-5" target="DztG8jWdw_vd6ydKxD23-2" edge="1">
          <mxGeometry width="50" height="50" relative="1" as="geometry">
            <mxPoint x="368" y="1640" as="sourcePoint" />
            <mxPoint x="418" y="1590" as="targetPoint" />
          </mxGeometry>
        </mxCell>
        <mxCell id="DztG8jWdw_vd6ydKxD23-25" value="" style="endArrow=none;html=1;rounded=0;" parent="1" source="DztG8jWdw_vd6ydKxD23-2" target="DztG8jWdw_vd6ydKxD23-1" edge="1">
          <mxGeometry width="50" height="50" relative="1" as="geometry">
            <mxPoint x="368" y="1650" as="sourcePoint" />
            <mxPoint x="418" y="1600" as="targetPoint" />
          </mxGeometry>
        </mxCell>
        <mxCell id="DztG8jWdw_vd6ydKxD23-28" value="" style="endArrow=none;html=1;rounded=0;strokeWidth=3;" parent="1" source="DztG8jWdw_vd6ydKxD23-3" target="DztG8jWdw_vd6ydKxD23-5" edge="1">
          <mxGeometry width="50" height="50" relative="1" as="geometry">
            <mxPoint x="268" y="1660" as="sourcePoint" />
            <mxPoint x="318" y="1610" as="targetPoint" />
          </mxGeometry>
        </mxCell>
        <mxCell id="DztG8jWdw_vd6ydKxD23-29" value="" style="endArrow=none;html=1;rounded=0;" parent="1" source="DztG8jWdw_vd6ydKxD23-1" target="DztG8jWdw_vd6ydKxD23-4" edge="1">
          <mxGeometry width="50" height="50" relative="1" as="geometry">
            <mxPoint x="268" y="1660" as="sourcePoint" />
            <mxPoint x="318" y="1610" as="targetPoint" />
          </mxGeometry>
        </mxCell>
        <mxCell id="DztG8jWdw_vd6ydKxD23-32" value="S" style="ellipse;whiteSpace=wrap;html=1;aspect=fixed;strokeWidth=3;" parent="1" vertex="1">
          <mxGeometry x="90" y="1640" width="40" height="40" as="geometry" />
        </mxCell>
        <mxCell id="DztG8jWdw_vd6ydKxD23-33" value="2" style="ellipse;whiteSpace=wrap;html=1;aspect=fixed;strokeWidth=3;" parent="1" vertex="1">
          <mxGeometry x="140" y="1640" width="40" height="40" as="geometry" />
        </mxCell>
        <mxCell id="DztG8jWdw_vd6ydKxD23-34" value="1" style="ellipse;whiteSpace=wrap;html=1;aspect=fixed;fillColor=#dae8fc;strokeColor=#6c8ebf;" parent="1" vertex="1">
          <mxGeometry x="240" y="1640" width="40" height="40" as="geometry" />
        </mxCell>
        <mxCell id="DztG8jWdw_vd6ydKxD23-35" value="4" style="ellipse;whiteSpace=wrap;html=1;aspect=fixed;strokeWidth=3;" parent="1" vertex="1">
          <mxGeometry x="190" y="1640" width="40" height="40" as="geometry" />
        </mxCell>
        <mxCell id="DztG8jWdw_vd6ydKxD23-36" value="S" style="ellipse;whiteSpace=wrap;html=1;aspect=fixed;" parent="1" vertex="1">
          <mxGeometry x="390" y="1640" width="40" height="40" as="geometry" />
        </mxCell>
        <mxCell id="DztG8jWdw_vd6ydKxD23-37" value="5" style="ellipse;whiteSpace=wrap;html=1;aspect=fixed;fillColor=#dae8fc;strokeColor=#6c8ebf;" parent="1" vertex="1">
          <mxGeometry x="340" y="1640" width="40" height="40" as="geometry" />
        </mxCell>
        <mxCell id="DztG8jWdw_vd6ydKxD23-38" value="3" style="ellipse;whiteSpace=wrap;html=1;aspect=fixed;fillColor=#dae8fc;strokeColor=#6c8ebf;" parent="1" vertex="1">
          <mxGeometry x="290" y="1640" width="40" height="40" as="geometry" />
        </mxCell>
        <mxCell id="DztG8jWdw_vd6ydKxD23-40" value="" style="rounded=0;whiteSpace=wrap;html=1;strokeColor=none;" parent="1" vertex="1">
          <mxGeometry x="440" y="1390" width="360" height="300" as="geometry" />
        </mxCell>
        <mxCell id="DztG8jWdw_vd6ydKxD23-41" value="" style="endArrow=none;html=1;rounded=0;" parent="1" source="DztG8jWdw_vd6ydKxD23-63" target="DztG8jWdw_vd6ydKxD23-67" edge="1">
          <mxGeometry width="50" height="50" relative="1" as="geometry">
            <mxPoint x="590" y="1660" as="sourcePoint" />
            <mxPoint x="640" y="1610" as="targetPoint" />
          </mxGeometry>
        </mxCell>
        <mxCell id="DztG8jWdw_vd6ydKxD23-42" value="S" style="ellipse;whiteSpace=wrap;html=1;aspect=fixed;strokeWidth=3;" parent="1" vertex="1">
          <mxGeometry x="538" y="1400" width="40" height="40" as="geometry" />
        </mxCell>
        <mxCell id="DztG8jWdw_vd6ydKxD23-43" value="1" style="ellipse;whiteSpace=wrap;html=1;aspect=fixed;fillColor=#f8cecc;strokeColor=#b85450;" parent="1" vertex="1">
          <mxGeometry x="658" y="1400" width="40" height="40" as="geometry" />
        </mxCell>
        <mxCell id="DztG8jWdw_vd6ydKxD23-44" value="4" style="ellipse;whiteSpace=wrap;html=1;aspect=fixed;strokeWidth=3;" parent="1" vertex="1">
          <mxGeometry x="538" y="1580" width="40" height="40" as="geometry" />
        </mxCell>
        <mxCell id="DztG8jWdw_vd6ydKxD23-45" value="3" style="ellipse;whiteSpace=wrap;html=1;aspect=fixed;fillColor=#f8cecc;strokeColor=#b85450;" parent="1" vertex="1">
          <mxGeometry x="658" y="1580" width="40" height="40" as="geometry" />
        </mxCell>
        <mxCell id="DztG8jWdw_vd6ydKxD23-46" value="2" style="ellipse;whiteSpace=wrap;html=1;aspect=fixed;strokeWidth=3;" parent="1" vertex="1">
          <mxGeometry x="698" y="1490" width="40" height="40" as="geometry" />
        </mxCell>
        <mxCell id="DztG8jWdw_vd6ydKxD23-47" value="5" style="ellipse;whiteSpace=wrap;html=1;aspect=fixed;fillColor=#f8cecc;strokeColor=#b85450;" parent="1" vertex="1">
          <mxGeometry x="498" y="1490" width="40" height="40" as="geometry" />
        </mxCell>
        <mxCell id="DztG8jWdw_vd6ydKxD23-48" value="" style="endArrow=none;html=1;rounded=0;" parent="1" source="DztG8jWdw_vd6ydKxD23-47" target="DztG8jWdw_vd6ydKxD23-45" edge="1">
          <mxGeometry width="50" height="50" relative="1" as="geometry">
            <mxPoint x="728" y="1640" as="sourcePoint" />
            <mxPoint x="778" y="1590" as="targetPoint" />
          </mxGeometry>
        </mxCell>
        <mxCell id="DztG8jWdw_vd6ydKxD23-49" value="" style="endArrow=none;html=1;rounded=0;" parent="1" source="DztG8jWdw_vd6ydKxD23-47" target="DztG8jWdw_vd6ydKxD23-46" edge="1">
          <mxGeometry width="50" height="50" relative="1" as="geometry">
            <mxPoint x="728" y="1640" as="sourcePoint" />
            <mxPoint x="778" y="1590" as="targetPoint" />
          </mxGeometry>
        </mxCell>
        <mxCell id="DztG8jWdw_vd6ydKxD23-50" value="" style="endArrow=none;html=1;rounded=0;strokeWidth=1;" parent="1" source="DztG8jWdw_vd6ydKxD23-46" target="DztG8jWdw_vd6ydKxD23-42" edge="1">
          <mxGeometry width="50" height="50" relative="1" as="geometry">
            <mxPoint x="728" y="1640" as="sourcePoint" />
            <mxPoint x="778" y="1590" as="targetPoint" />
          </mxGeometry>
        </mxCell>
        <mxCell id="DztG8jWdw_vd6ydKxD23-51" value="" style="endArrow=none;html=1;rounded=0;" parent="1" source="DztG8jWdw_vd6ydKxD23-44" target="DztG8jWdw_vd6ydKxD23-43" edge="1">
          <mxGeometry width="50" height="50" relative="1" as="geometry">
            <mxPoint x="728" y="1640" as="sourcePoint" />
            <mxPoint x="678" y="1420" as="targetPoint" />
          </mxGeometry>
        </mxCell>
        <mxCell id="DztG8jWdw_vd6ydKxD23-52" value="" style="endArrow=none;html=1;rounded=0;strokeWidth=3;" parent="1" source="DztG8jWdw_vd6ydKxD23-44" target="DztG8jWdw_vd6ydKxD23-42" edge="1">
          <mxGeometry width="50" height="50" relative="1" as="geometry">
            <mxPoint x="728" y="1640" as="sourcePoint" />
            <mxPoint x="778" y="1590" as="targetPoint" />
          </mxGeometry>
        </mxCell>
        <mxCell id="DztG8jWdw_vd6ydKxD23-53" value="" style="endArrow=classic;html=1;rounded=0;startArrow=none;startFill=0;endFill=1;" parent="1" source="DztG8jWdw_vd6ydKxD23-47" target="DztG8jWdw_vd6ydKxD23-42" edge="1">
          <mxGeometry width="50" height="50" relative="1" as="geometry">
            <mxPoint x="728" y="1640" as="sourcePoint" />
            <mxPoint x="778" y="1590" as="targetPoint" />
          </mxGeometry>
        </mxCell>
        <mxCell id="DztG8jWdw_vd6ydKxD23-54" value="" style="endArrow=none;html=1;rounded=0;" parent="1" source="DztG8jWdw_vd6ydKxD23-44" target="DztG8jWdw_vd6ydKxD23-47" edge="1">
          <mxGeometry width="50" height="50" relative="1" as="geometry">
            <mxPoint x="728" y="1640" as="sourcePoint" />
            <mxPoint x="778" y="1590" as="targetPoint" />
          </mxGeometry>
        </mxCell>
        <mxCell id="DztG8jWdw_vd6ydKxD23-55" value="" style="endArrow=none;html=1;rounded=0;" parent="1" source="DztG8jWdw_vd6ydKxD23-44" target="DztG8jWdw_vd6ydKxD23-45" edge="1">
          <mxGeometry width="50" height="50" relative="1" as="geometry">
            <mxPoint x="728" y="1630" as="sourcePoint" />
            <mxPoint x="778" y="1580" as="targetPoint" />
          </mxGeometry>
        </mxCell>
        <mxCell id="DztG8jWdw_vd6ydKxD23-56" value="" style="endArrow=none;html=1;rounded=0;" parent="1" source="DztG8jWdw_vd6ydKxD23-45" target="DztG8jWdw_vd6ydKxD23-46" edge="1">
          <mxGeometry width="50" height="50" relative="1" as="geometry">
            <mxPoint x="728" y="1640" as="sourcePoint" />
            <mxPoint x="778" y="1590" as="targetPoint" />
          </mxGeometry>
        </mxCell>
        <mxCell id="DztG8jWdw_vd6ydKxD23-57" value="" style="endArrow=none;html=1;rounded=0;" parent="1" source="DztG8jWdw_vd6ydKxD23-46" target="DztG8jWdw_vd6ydKxD23-43" edge="1">
          <mxGeometry width="50" height="50" relative="1" as="geometry">
            <mxPoint x="728" y="1640" as="sourcePoint" />
            <mxPoint x="778" y="1590" as="targetPoint" />
          </mxGeometry>
        </mxCell>
        <mxCell id="DztG8jWdw_vd6ydKxD23-58" value="" style="endArrow=none;html=1;rounded=0;" parent="1" source="DztG8jWdw_vd6ydKxD23-43" target="DztG8jWdw_vd6ydKxD23-42" edge="1">
          <mxGeometry width="50" height="50" relative="1" as="geometry">
            <mxPoint x="728" y="1650" as="sourcePoint" />
            <mxPoint x="778" y="1600" as="targetPoint" />
          </mxGeometry>
        </mxCell>
        <mxCell id="DztG8jWdw_vd6ydKxD23-59" value="" style="endArrow=none;html=1;rounded=0;strokeWidth=3;" parent="1" source="DztG8jWdw_vd6ydKxD23-44" target="DztG8jWdw_vd6ydKxD23-46" edge="1">
          <mxGeometry width="50" height="50" relative="1" as="geometry">
            <mxPoint x="628" y="1660" as="sourcePoint" />
            <mxPoint x="678" y="1610" as="targetPoint" />
          </mxGeometry>
        </mxCell>
        <mxCell id="DztG8jWdw_vd6ydKxD23-60" value="" style="endArrow=none;html=1;rounded=0;" parent="1" source="DztG8jWdw_vd6ydKxD23-42" target="DztG8jWdw_vd6ydKxD23-45" edge="1">
          <mxGeometry width="50" height="50" relative="1" as="geometry">
            <mxPoint x="628" y="1660" as="sourcePoint" />
            <mxPoint x="678" y="1610" as="targetPoint" />
          </mxGeometry>
        </mxCell>
        <mxCell id="DztG8jWdw_vd6ydKxD23-61" value="" style="endArrow=none;html=1;rounded=0;startArrow=classic;startFill=1;" parent="1" source="DztG8jWdw_vd6ydKxD23-43" target="DztG8jWdw_vd6ydKxD23-45" edge="1">
          <mxGeometry width="50" height="50" relative="1" as="geometry">
            <mxPoint x="628" y="1660" as="sourcePoint" />
            <mxPoint x="678" y="1610" as="targetPoint" />
          </mxGeometry>
        </mxCell>
        <mxCell id="DztG8jWdw_vd6ydKxD23-62" value="" style="endArrow=classic;html=1;rounded=0;startArrow=none;startFill=0;endFill=1;" parent="1" source="DztG8jWdw_vd6ydKxD23-43" target="DztG8jWdw_vd6ydKxD23-47" edge="1">
          <mxGeometry width="50" height="50" relative="1" as="geometry">
            <mxPoint x="628" y="1660" as="sourcePoint" />
            <mxPoint x="678" y="1610" as="targetPoint" />
          </mxGeometry>
        </mxCell>
        <mxCell id="DztG8jWdw_vd6ydKxD23-63" value="S" style="ellipse;whiteSpace=wrap;html=1;aspect=fixed;strokeWidth=3;" parent="1" vertex="1">
          <mxGeometry x="450" y="1640" width="40" height="40" as="geometry" />
        </mxCell>
        <mxCell id="DztG8jWdw_vd6ydKxD23-64" value="4" style="ellipse;whiteSpace=wrap;html=1;aspect=fixed;strokeWidth=3;" parent="1" vertex="1">
          <mxGeometry x="500" y="1640" width="40" height="40" as="geometry" />
        </mxCell>
        <mxCell id="DztG8jWdw_vd6ydKxD23-65" value="1" style="ellipse;whiteSpace=wrap;html=1;aspect=fixed;fillColor=#f8cecc;strokeColor=#b85450;" parent="1" vertex="1">
          <mxGeometry x="600" y="1640" width="40" height="40" as="geometry" />
        </mxCell>
        <mxCell id="DztG8jWdw_vd6ydKxD23-66" value="2" style="ellipse;whiteSpace=wrap;html=1;aspect=fixed;strokeWidth=3;" parent="1" vertex="1">
          <mxGeometry x="550" y="1640" width="40" height="40" as="geometry" />
        </mxCell>
        <mxCell id="DztG8jWdw_vd6ydKxD23-67" value="S" style="ellipse;whiteSpace=wrap;html=1;aspect=fixed;" parent="1" vertex="1">
          <mxGeometry x="750" y="1640" width="40" height="40" as="geometry" />
        </mxCell>
        <mxCell id="DztG8jWdw_vd6ydKxD23-68" value="5" style="ellipse;whiteSpace=wrap;html=1;aspect=fixed;fillColor=#f8cecc;strokeColor=#b85450;" parent="1" vertex="1">
          <mxGeometry x="700" y="1640" width="40" height="40" as="geometry" />
        </mxCell>
        <mxCell id="DztG8jWdw_vd6ydKxD23-69" value="3" style="ellipse;whiteSpace=wrap;html=1;aspect=fixed;fillColor=#f8cecc;strokeColor=#b85450;" parent="1" vertex="1">
          <mxGeometry x="650" y="1640" width="40" height="40" as="geometry" />
        </mxCell>
        <mxCell id="DztG8jWdw_vd6ydKxD23-70" value="" style="endArrow=none;html=1;rounded=0;dashed=1;" parent="1" edge="1">
          <mxGeometry width="50" height="50" relative="1" as="geometry">
            <mxPoint x="440" y="1660" as="sourcePoint" />
            <mxPoint x="440" y="1420" as="targetPoint" />
          </mxGeometry>
        </mxCell>
        <mxCell id="DztG8jWdw_vd6ydKxD23-72" value="" style="endArrow=classic;html=1;rounded=0;" parent="1" source="DztG8jWdw_vd6ydKxD23-6" target="DztG8jWdw_vd6ydKxD23-1" edge="1">
          <mxGeometry width="50" height="50" relative="1" as="geometry">
            <mxPoint x="320" y="1550" as="sourcePoint" />
            <mxPoint x="370" y="1500" as="targetPoint" />
          </mxGeometry>
        </mxCell>
        <mxCell id="DztG8jWdw_vd6ydKxD23-73" value="" style="endArrow=classic;html=1;rounded=0;" parent="1" source="DztG8jWdw_vd6ydKxD23-2" target="DztG8jWdw_vd6ydKxD23-6" edge="1">
          <mxGeometry width="50" height="50" relative="1" as="geometry">
            <mxPoint x="320" y="1550" as="sourcePoint" />
            <mxPoint x="370" y="1500" as="targetPoint" />
          </mxGeometry>
        </mxCell>
        <mxCell id="DztG8jWdw_vd6ydKxD23-74" value="" style="endArrow=classic;html=1;rounded=0;" parent="1" source="DztG8jWdw_vd6ydKxD23-4" target="DztG8jWdw_vd6ydKxD23-2" edge="1">
          <mxGeometry width="50" height="50" relative="1" as="geometry">
            <mxPoint x="320" y="1550" as="sourcePoint" />
            <mxPoint x="370" y="1500" as="targetPoint" />
          </mxGeometry>
        </mxCell>
        <mxCell id="DztG8jWdw_vd6ydKxD23-107" value="" style="rounded=0;whiteSpace=wrap;html=1;strokeColor=none;" parent="1" vertex="1">
          <mxGeometry x="250" y="1860" width="360" height="300" as="geometry" />
        </mxCell>
        <mxCell id="DztG8jWdw_vd6ydKxD23-108" value="" style="endArrow=none;html=1;rounded=0;" parent="1" source="DztG8jWdw_vd6ydKxD23-127" target="DztG8jWdw_vd6ydKxD23-131" edge="1">
          <mxGeometry width="50" height="50" relative="1" as="geometry">
            <mxPoint x="400" y="2130" as="sourcePoint" />
            <mxPoint x="450" y="2080" as="targetPoint" />
          </mxGeometry>
        </mxCell>
        <mxCell id="DztG8jWdw_vd6ydKxD23-109" value="S" style="ellipse;whiteSpace=wrap;html=1;aspect=fixed;strokeWidth=3;" parent="1" vertex="1">
          <mxGeometry x="348" y="1870" width="40" height="40" as="geometry" />
        </mxCell>
        <mxCell id="DztG8jWdw_vd6ydKxD23-110" value="1" style="ellipse;whiteSpace=wrap;html=1;aspect=fixed;" parent="1" vertex="1">
          <mxGeometry x="468" y="1870" width="40" height="40" as="geometry" />
        </mxCell>
        <mxCell id="DztG8jWdw_vd6ydKxD23-111" value="4" style="ellipse;whiteSpace=wrap;html=1;aspect=fixed;strokeWidth=3;" parent="1" vertex="1">
          <mxGeometry x="348" y="2050" width="40" height="40" as="geometry" />
        </mxCell>
        <mxCell id="DztG8jWdw_vd6ydKxD23-112" value="3" style="ellipse;whiteSpace=wrap;html=1;aspect=fixed;" parent="1" vertex="1">
          <mxGeometry x="468" y="2050" width="40" height="40" as="geometry" />
        </mxCell>
        <mxCell id="DztG8jWdw_vd6ydKxD23-113" value="2" style="ellipse;whiteSpace=wrap;html=1;aspect=fixed;strokeWidth=3;" parent="1" vertex="1">
          <mxGeometry x="508" y="1960" width="40" height="40" as="geometry" />
        </mxCell>
        <mxCell id="DztG8jWdw_vd6ydKxD23-114" value="5" style="ellipse;whiteSpace=wrap;html=1;aspect=fixed;" parent="1" vertex="1">
          <mxGeometry x="308" y="1960" width="40" height="40" as="geometry" />
        </mxCell>
        <mxCell id="DztG8jWdw_vd6ydKxD23-115" value="" style="endArrow=none;html=1;rounded=0;" parent="1" source="DztG8jWdw_vd6ydKxD23-114" target="DztG8jWdw_vd6ydKxD23-112" edge="1">
          <mxGeometry width="50" height="50" relative="1" as="geometry">
            <mxPoint x="538" y="2110" as="sourcePoint" />
            <mxPoint x="588" y="2060" as="targetPoint" />
          </mxGeometry>
        </mxCell>
        <mxCell id="DztG8jWdw_vd6ydKxD23-116" value="" style="endArrow=none;html=1;rounded=0;" parent="1" source="DztG8jWdw_vd6ydKxD23-114" target="DztG8jWdw_vd6ydKxD23-113" edge="1">
          <mxGeometry width="50" height="50" relative="1" as="geometry">
            <mxPoint x="538" y="2110" as="sourcePoint" />
            <mxPoint x="588" y="2060" as="targetPoint" />
          </mxGeometry>
        </mxCell>
        <mxCell id="DztG8jWdw_vd6ydKxD23-117" value="" style="endArrow=none;html=1;rounded=0;strokeWidth=3;" parent="1" source="DztG8jWdw_vd6ydKxD23-113" target="DztG8jWdw_vd6ydKxD23-109" edge="1">
          <mxGeometry width="50" height="50" relative="1" as="geometry">
            <mxPoint x="538" y="2110" as="sourcePoint" />
            <mxPoint x="588" y="2060" as="targetPoint" />
          </mxGeometry>
        </mxCell>
        <mxCell id="DztG8jWdw_vd6ydKxD23-118" value="" style="endArrow=none;html=1;rounded=0;" parent="1" source="DztG8jWdw_vd6ydKxD23-111" target="DztG8jWdw_vd6ydKxD23-110" edge="1">
          <mxGeometry width="50" height="50" relative="1" as="geometry">
            <mxPoint x="538" y="2110" as="sourcePoint" />
            <mxPoint x="488" y="1890" as="targetPoint" />
          </mxGeometry>
        </mxCell>
        <mxCell id="DztG8jWdw_vd6ydKxD23-119" value="" style="endArrow=none;html=1;rounded=0;" parent="1" source="DztG8jWdw_vd6ydKxD23-111" target="DztG8jWdw_vd6ydKxD23-109" edge="1">
          <mxGeometry width="50" height="50" relative="1" as="geometry">
            <mxPoint x="538" y="2110" as="sourcePoint" />
            <mxPoint x="588" y="2060" as="targetPoint" />
          </mxGeometry>
        </mxCell>
        <mxCell id="DztG8jWdw_vd6ydKxD23-120" value="" style="endArrow=none;html=1;rounded=0;" parent="1" source="DztG8jWdw_vd6ydKxD23-111" target="DztG8jWdw_vd6ydKxD23-114" edge="1">
          <mxGeometry width="50" height="50" relative="1" as="geometry">
            <mxPoint x="538" y="2110" as="sourcePoint" />
            <mxPoint x="588" y="2060" as="targetPoint" />
          </mxGeometry>
        </mxCell>
        <mxCell id="DztG8jWdw_vd6ydKxD23-121" value="" style="endArrow=none;html=1;rounded=0;" parent="1" source="DztG8jWdw_vd6ydKxD23-111" target="DztG8jWdw_vd6ydKxD23-112" edge="1">
          <mxGeometry width="50" height="50" relative="1" as="geometry">
            <mxPoint x="538" y="2100" as="sourcePoint" />
            <mxPoint x="588" y="2050" as="targetPoint" />
          </mxGeometry>
        </mxCell>
        <mxCell id="DztG8jWdw_vd6ydKxD23-122" value="" style="endArrow=none;html=1;rounded=0;" parent="1" source="DztG8jWdw_vd6ydKxD23-112" target="DztG8jWdw_vd6ydKxD23-113" edge="1">
          <mxGeometry width="50" height="50" relative="1" as="geometry">
            <mxPoint x="538" y="2110" as="sourcePoint" />
            <mxPoint x="588" y="2060" as="targetPoint" />
          </mxGeometry>
        </mxCell>
        <mxCell id="DztG8jWdw_vd6ydKxD23-123" value="" style="endArrow=none;html=1;rounded=0;" parent="1" source="DztG8jWdw_vd6ydKxD23-113" target="DztG8jWdw_vd6ydKxD23-110" edge="1">
          <mxGeometry width="50" height="50" relative="1" as="geometry">
            <mxPoint x="538" y="2110" as="sourcePoint" />
            <mxPoint x="588" y="2060" as="targetPoint" />
          </mxGeometry>
        </mxCell>
        <mxCell id="DztG8jWdw_vd6ydKxD23-124" value="" style="endArrow=none;html=1;rounded=0;" parent="1" source="DztG8jWdw_vd6ydKxD23-110" target="DztG8jWdw_vd6ydKxD23-109" edge="1">
          <mxGeometry width="50" height="50" relative="1" as="geometry">
            <mxPoint x="538" y="2120" as="sourcePoint" />
            <mxPoint x="588" y="2070" as="targetPoint" />
          </mxGeometry>
        </mxCell>
        <mxCell id="DztG8jWdw_vd6ydKxD23-125" value="" style="endArrow=none;html=1;rounded=0;strokeWidth=3;" parent="1" source="DztG8jWdw_vd6ydKxD23-111" target="DztG8jWdw_vd6ydKxD23-113" edge="1">
          <mxGeometry width="50" height="50" relative="1" as="geometry">
            <mxPoint x="438" y="2130" as="sourcePoint" />
            <mxPoint x="488" y="2080" as="targetPoint" />
          </mxGeometry>
        </mxCell>
        <mxCell id="DztG8jWdw_vd6ydKxD23-126" value="" style="endArrow=none;html=1;rounded=0;" parent="1" source="DztG8jWdw_vd6ydKxD23-109" target="DztG8jWdw_vd6ydKxD23-112" edge="1">
          <mxGeometry width="50" height="50" relative="1" as="geometry">
            <mxPoint x="438" y="2130" as="sourcePoint" />
            <mxPoint x="488" y="2080" as="targetPoint" />
          </mxGeometry>
        </mxCell>
        <mxCell id="DztG8jWdw_vd6ydKxD23-127" value="S" style="ellipse;whiteSpace=wrap;html=1;aspect=fixed;strokeWidth=3;" parent="1" vertex="1">
          <mxGeometry x="260" y="2110" width="40" height="40" as="geometry" />
        </mxCell>
        <mxCell id="DztG8jWdw_vd6ydKxD23-128" value="2" style="ellipse;whiteSpace=wrap;html=1;aspect=fixed;strokeWidth=3;" parent="1" vertex="1">
          <mxGeometry x="310" y="2110" width="40" height="40" as="geometry" />
        </mxCell>
        <mxCell id="DztG8jWdw_vd6ydKxD23-129" value="P&lt;sub&gt;3&lt;/sub&gt;" style="ellipse;whiteSpace=wrap;html=1;aspect=fixed;" parent="1" vertex="1">
          <mxGeometry x="410" y="2110" width="40" height="40" as="geometry" />
        </mxCell>
        <mxCell id="DztG8jWdw_vd6ydKxD23-130" value="4" style="ellipse;whiteSpace=wrap;html=1;aspect=fixed;strokeWidth=3;" parent="1" vertex="1">
          <mxGeometry x="360" y="2110" width="40" height="40" as="geometry" />
        </mxCell>
        <mxCell id="DztG8jWdw_vd6ydKxD23-131" value="S" style="ellipse;whiteSpace=wrap;html=1;aspect=fixed;" parent="1" vertex="1">
          <mxGeometry x="560" y="2110" width="40" height="40" as="geometry" />
        </mxCell>
        <mxCell id="DztG8jWdw_vd6ydKxD23-132" value="P&lt;sub&gt;5&lt;/sub&gt;" style="ellipse;whiteSpace=wrap;html=1;aspect=fixed;" parent="1" vertex="1">
          <mxGeometry x="510" y="2110" width="40" height="40" as="geometry" />
        </mxCell>
        <mxCell id="DztG8jWdw_vd6ydKxD23-133" value="P&lt;sub&gt;4&lt;/sub&gt;" style="ellipse;whiteSpace=wrap;html=1;aspect=fixed;" parent="1" vertex="1">
          <mxGeometry x="460" y="2110" width="40" height="40" as="geometry" />
        </mxCell>
        <mxCell id="DztG8jWdw_vd6ydKxD23-135" value="" style="endArrow=none;html=1;rounded=0;startArrow=none;startFill=0;" parent="1" source="DztG8jWdw_vd6ydKxD23-114" target="DztG8jWdw_vd6ydKxD23-109" edge="1">
          <mxGeometry width="50" height="50" relative="1" as="geometry">
            <mxPoint x="490" y="2020" as="sourcePoint" />
            <mxPoint x="540" y="1970" as="targetPoint" />
          </mxGeometry>
        </mxCell>
        <mxCell id="DztG8jWdw_vd6ydKxD23-136" value="" style="endArrow=none;html=1;rounded=0;startArrow=none;startFill=0;" parent="1" source="DztG8jWdw_vd6ydKxD23-110" target="DztG8jWdw_vd6ydKxD23-114" edge="1">
          <mxGeometry width="50" height="50" relative="1" as="geometry">
            <mxPoint x="490" y="2020" as="sourcePoint" />
            <mxPoint x="540" y="1970" as="targetPoint" />
          </mxGeometry>
        </mxCell>
        <mxCell id="DztG8jWdw_vd6ydKxD23-137" value="" style="endArrow=none;html=1;rounded=0;startArrow=none;startFill=0;" parent="1" source="DztG8jWdw_vd6ydKxD23-112" target="DztG8jWdw_vd6ydKxD23-110" edge="1">
          <mxGeometry width="50" height="50" relative="1" as="geometry">
            <mxPoint x="490" y="2020" as="sourcePoint" />
            <mxPoint x="540" y="1970" as="targetPoint" />
          </mxGeometry>
        </mxCell>
        <mxCell id="DztG8jWdw_vd6ydKxD23-138" value="S" style="ellipse;whiteSpace=wrap;html=1;aspect=fixed;fillColor=#fff2cc;strokeColor=#d6b656;" parent="1" vertex="1">
          <mxGeometry x="480" y="2190" width="40" height="40" as="geometry" />
        </mxCell>
        <mxCell id="DztG8jWdw_vd6ydKxD23-139" value="1" style="ellipse;whiteSpace=wrap;html=1;aspect=fixed;" parent="1" vertex="1">
          <mxGeometry x="440" y="2190" width="40" height="40" as="geometry" />
        </mxCell>
        <mxCell id="DztG8jWdw_vd6ydKxD23-140" value="2" style="ellipse;whiteSpace=wrap;html=1;aspect=fixed;fillColor=#fff2cc;strokeColor=#d6b656;" parent="1" vertex="1">
          <mxGeometry x="400" y="2190" width="40" height="40" as="geometry" />
        </mxCell>
        <mxCell id="DztG8jWdw_vd6ydKxD23-141" value="3" style="ellipse;whiteSpace=wrap;html=1;aspect=fixed;" parent="1" vertex="1">
          <mxGeometry x="360" y="2190" width="40" height="40" as="geometry" />
        </mxCell>
        <mxCell id="DztG8jWdw_vd6ydKxD23-142" value="4" style="ellipse;whiteSpace=wrap;html=1;aspect=fixed;fillColor=#fff2cc;strokeColor=#d6b656;" parent="1" vertex="1">
          <mxGeometry x="320" y="2190" width="40" height="40" as="geometry" />
        </mxCell>
        <mxCell id="DztG8jWdw_vd6ydKxD23-143" value="5" style="ellipse;whiteSpace=wrap;html=1;aspect=fixed;" parent="1" vertex="1">
          <mxGeometry x="280" y="2190" width="40" height="40" as="geometry" />
        </mxCell>
        <mxCell id="DztG8jWdw_vd6ydKxD23-144" value="0" style="text;html=1;align=center;verticalAlign=middle;whiteSpace=wrap;rounded=0;" parent="1" vertex="1">
          <mxGeometry x="280" y="2230" width="40" height="30" as="geometry" />
        </mxCell>
        <mxCell id="DztG8jWdw_vd6ydKxD23-145" value="1" style="text;html=1;align=center;verticalAlign=middle;whiteSpace=wrap;rounded=0;" parent="1" vertex="1">
          <mxGeometry x="320" y="2230" width="40" height="30" as="geometry" />
        </mxCell>
        <mxCell id="DztG8jWdw_vd6ydKxD23-146" value="0" style="text;html=1;align=center;verticalAlign=middle;whiteSpace=wrap;rounded=0;" parent="1" vertex="1">
          <mxGeometry x="360" y="2230" width="40" height="30" as="geometry" />
        </mxCell>
        <mxCell id="DztG8jWdw_vd6ydKxD23-147" value="1" style="text;html=1;align=center;verticalAlign=middle;whiteSpace=wrap;rounded=0;" parent="1" vertex="1">
          <mxGeometry x="400" y="2230" width="40" height="30" as="geometry" />
        </mxCell>
        <mxCell id="DztG8jWdw_vd6ydKxD23-148" value="0" style="text;html=1;align=center;verticalAlign=middle;whiteSpace=wrap;rounded=0;" parent="1" vertex="1">
          <mxGeometry x="440" y="2230" width="40" height="30" as="geometry" />
        </mxCell>
        <mxCell id="DztG8jWdw_vd6ydKxD23-149" value="1" style="text;html=1;align=center;verticalAlign=middle;whiteSpace=wrap;rounded=0;" parent="1" vertex="1">
          <mxGeometry x="480" y="2230" width="40" height="30" as="geometry" />
        </mxCell>
        <mxCell id="DztG8jWdw_vd6ydKxD23-150" value="&lt;sub&gt;(2)&lt;/sub&gt;" style="text;html=1;align=center;verticalAlign=middle;whiteSpace=wrap;rounded=0;" parent="1" vertex="1">
          <mxGeometry x="520" y="2230" width="20" height="30" as="geometry" />
        </mxCell>
        <mxCell id="DztG8jWdw_vd6ydKxD23-151" value="= 21" style="text;html=1;align=center;verticalAlign=middle;whiteSpace=wrap;rounded=0;" parent="1" vertex="1">
          <mxGeometry x="540" y="2230" width="30" height="30" as="geometry" />
        </mxCell>
        <mxCell id="DztG8jWdw_vd6ydKxD23-153" value="S" style="ellipse;whiteSpace=wrap;html=1;aspect=fixed;fillColor=#dae8fc;strokeColor=#6c8ebf;" parent="1" vertex="1">
          <mxGeometry x="1071" y="1500" width="40" height="40" as="geometry" />
        </mxCell>
        <mxCell id="DztG8jWdw_vd6ydKxD23-154" value="1" style="ellipse;whiteSpace=wrap;html=1;aspect=fixed;fillColor=#dae8fc;strokeColor=#6c8ebf;" parent="1" vertex="1">
          <mxGeometry x="1171" y="1450" width="40" height="40" as="geometry" />
        </mxCell>
        <mxCell id="DztG8jWdw_vd6ydKxD23-155" value="3" style="ellipse;whiteSpace=wrap;html=1;aspect=fixed;fillColor=#dae8fc;strokeColor=#6c8ebf;" parent="1" vertex="1">
          <mxGeometry x="1161" y="1590" width="40" height="40" as="geometry" />
        </mxCell>
        <mxCell id="DztG8jWdw_vd6ydKxD23-156" value="4" style="ellipse;whiteSpace=wrap;html=1;aspect=fixed;" parent="1" vertex="1">
          <mxGeometry x="1241" y="1520" width="40" height="40" as="geometry" />
        </mxCell>
        <mxCell id="DztG8jWdw_vd6ydKxD23-157" value="7" style="ellipse;whiteSpace=wrap;html=1;aspect=fixed;" parent="1" vertex="1">
          <mxGeometry x="1201" y="1680" width="40" height="40" as="geometry" />
        </mxCell>
        <mxCell id="DztG8jWdw_vd6ydKxD23-158" value="8" style="ellipse;whiteSpace=wrap;html=1;aspect=fixed;" parent="1" vertex="1">
          <mxGeometry x="1281" y="1640" width="40" height="40" as="geometry" />
        </mxCell>
        <mxCell id="DztG8jWdw_vd6ydKxD23-159" value="2" style="ellipse;whiteSpace=wrap;html=1;aspect=fixed;" parent="1" vertex="1">
          <mxGeometry x="1341" y="1480" width="40" height="40" as="geometry" />
        </mxCell>
        <mxCell id="DztG8jWdw_vd6ydKxD23-160" value="5" style="ellipse;whiteSpace=wrap;html=1;aspect=fixed;" parent="1" vertex="1">
          <mxGeometry x="1371" y="1560" width="40" height="40" as="geometry" />
        </mxCell>
        <mxCell id="DztG8jWdw_vd6ydKxD23-161" value="9" style="ellipse;whiteSpace=wrap;html=1;aspect=fixed;" parent="1" vertex="1">
          <mxGeometry x="1381" y="1640" width="40" height="40" as="geometry" />
        </mxCell>
        <mxCell id="DztG8jWdw_vd6ydKxD23-162" value="6" style="ellipse;whiteSpace=wrap;html=1;aspect=fixed;fillColor=#dae8fc;strokeColor=#6c8ebf;" parent="1" vertex="1">
          <mxGeometry x="1061" y="1640" width="40" height="40" as="geometry" />
        </mxCell>
        <mxCell id="DztG8jWdw_vd6ydKxD23-169" value="now" style="text;html=1;align=center;verticalAlign=middle;whiteSpace=wrap;rounded=0;" parent="1" vertex="1">
          <mxGeometry x="1161" y="1570" width="40" height="20" as="geometry" />
        </mxCell>
        <mxCell id="DztG8jWdw_vd6ydKxD23-170" value="0" style="ellipse;whiteSpace=wrap;html=1;aspect=fixed;" parent="1" vertex="1">
          <mxGeometry x="1150" y="1950" width="40" height="40" as="geometry" />
        </mxCell>
        <mxCell id="DztG8jWdw_vd6ydKxD23-171" value="1" style="ellipse;whiteSpace=wrap;html=1;aspect=fixed;fillColor=#dae8fc;strokeColor=#6c8ebf;" parent="1" vertex="1">
          <mxGeometry x="1200" y="1950" width="40" height="40" as="geometry" />
        </mxCell>
        <mxCell id="DztG8jWdw_vd6ydKxD23-172" value="2" style="ellipse;whiteSpace=wrap;html=1;aspect=fixed;" parent="1" vertex="1">
          <mxGeometry x="1240" y="1990" width="40" height="40" as="geometry" />
        </mxCell>
        <mxCell id="DztG8jWdw_vd6ydKxD23-174" value="3" style="ellipse;whiteSpace=wrap;html=1;aspect=fixed;" parent="1" vertex="1">
          <mxGeometry x="1240" y="2040" width="40" height="40" as="geometry" />
        </mxCell>
        <mxCell id="DztG8jWdw_vd6ydKxD23-175" value="7" style="ellipse;whiteSpace=wrap;html=1;aspect=fixed;" parent="1" vertex="1">
          <mxGeometry x="1110" y="1990" width="40" height="40" as="geometry" />
        </mxCell>
        <mxCell id="DztG8jWdw_vd6ydKxD23-176" value="4" style="ellipse;whiteSpace=wrap;html=1;aspect=fixed;" parent="1" vertex="1">
          <mxGeometry x="1200" y="2080" width="40" height="40" as="geometry" />
        </mxCell>
        <mxCell id="DztG8jWdw_vd6ydKxD23-177" value="5" style="ellipse;whiteSpace=wrap;html=1;aspect=fixed;" parent="1" vertex="1">
          <mxGeometry x="1150" y="2080" width="40" height="40" as="geometry" />
        </mxCell>
        <mxCell id="DztG8jWdw_vd6ydKxD23-178" value="6" style="ellipse;whiteSpace=wrap;html=1;aspect=fixed;" parent="1" vertex="1">
          <mxGeometry x="1110" y="2040" width="40" height="40" as="geometry" />
        </mxCell>
        <mxCell id="DztG8jWdw_vd6ydKxD23-179" value="" style="endArrow=classic;html=1;rounded=0;" parent="1" source="DztG8jWdw_vd6ydKxD23-170" target="DztG8jWdw_vd6ydKxD23-176" edge="1">
          <mxGeometry width="50" height="50" relative="1" as="geometry">
            <mxPoint x="1260" y="2210" as="sourcePoint" />
            <mxPoint x="1310" y="2160" as="targetPoint" />
          </mxGeometry>
        </mxCell>
        <mxCell id="DztG8jWdw_vd6ydKxD23-180" value="" style="endArrow=classic;html=1;rounded=0;" parent="1" source="DztG8jWdw_vd6ydKxD23-171" target="DztG8jWdw_vd6ydKxD23-178" edge="1">
          <mxGeometry width="50" height="50" relative="1" as="geometry">
            <mxPoint x="1260" y="2210" as="sourcePoint" />
            <mxPoint x="1310" y="2160" as="targetPoint" />
          </mxGeometry>
        </mxCell>
        <mxCell id="DztG8jWdw_vd6ydKxD23-181" value="" style="endArrow=classic;html=1;rounded=0;" parent="1" source="DztG8jWdw_vd6ydKxD23-172" target="DztG8jWdw_vd6ydKxD23-171" edge="1">
          <mxGeometry width="50" height="50" relative="1" as="geometry">
            <mxPoint x="1260" y="2210" as="sourcePoint" />
            <mxPoint x="1310" y="2160" as="targetPoint" />
          </mxGeometry>
        </mxCell>
        <mxCell id="DztG8jWdw_vd6ydKxD23-182" value="" style="endArrow=classic;html=1;rounded=0;" parent="1" source="DztG8jWdw_vd6ydKxD23-175" target="DztG8jWdw_vd6ydKxD23-172" edge="1">
          <mxGeometry width="50" height="50" relative="1" as="geometry">
            <mxPoint x="1260" y="2210" as="sourcePoint" />
            <mxPoint x="1310" y="2160" as="targetPoint" />
          </mxGeometry>
        </mxCell>
        <mxCell id="DztG8jWdw_vd6ydKxD23-183" value="" style="endArrow=classic;html=1;rounded=0;" parent="1" source="DztG8jWdw_vd6ydKxD23-174" target="DztG8jWdw_vd6ydKxD23-175" edge="1">
          <mxGeometry width="50" height="50" relative="1" as="geometry">
            <mxPoint x="1260" y="2210" as="sourcePoint" />
            <mxPoint x="1310" y="2160" as="targetPoint" />
          </mxGeometry>
        </mxCell>
        <mxCell id="DztG8jWdw_vd6ydKxD23-184" value="" style="endArrow=classic;html=1;rounded=0;" parent="1" source="DztG8jWdw_vd6ydKxD23-176" target="DztG8jWdw_vd6ydKxD23-174" edge="1">
          <mxGeometry width="50" height="50" relative="1" as="geometry">
            <mxPoint x="1260" y="2210" as="sourcePoint" />
            <mxPoint x="1310" y="2160" as="targetPoint" />
          </mxGeometry>
        </mxCell>
        <mxCell id="DztG8jWdw_vd6ydKxD23-185" value="" style="endArrow=classic;html=1;rounded=0;" parent="1" source="DztG8jWdw_vd6ydKxD23-177" target="DztG8jWdw_vd6ydKxD23-170" edge="1">
          <mxGeometry width="50" height="50" relative="1" as="geometry">
            <mxPoint x="1260" y="2210" as="sourcePoint" />
            <mxPoint x="1310" y="2160" as="targetPoint" />
          </mxGeometry>
        </mxCell>
        <mxCell id="DztG8jWdw_vd6ydKxD23-186" value="" style="endArrow=classic;html=1;rounded=0;" parent="1" source="DztG8jWdw_vd6ydKxD23-178" target="DztG8jWdw_vd6ydKxD23-177" edge="1">
          <mxGeometry width="50" height="50" relative="1" as="geometry">
            <mxPoint x="1260" y="2210" as="sourcePoint" />
            <mxPoint x="1310" y="2160" as="targetPoint" />
          </mxGeometry>
        </mxCell>
        <mxCell id="DztG8jWdw_vd6ydKxD23-187" value="0" style="ellipse;whiteSpace=wrap;html=1;aspect=fixed;" parent="1" vertex="1">
          <mxGeometry x="1350" y="1950" width="40" height="40" as="geometry" />
        </mxCell>
        <mxCell id="DztG8jWdw_vd6ydKxD23-188" value="1" style="ellipse;whiteSpace=wrap;html=1;aspect=fixed;" parent="1" vertex="1">
          <mxGeometry x="1400" y="1950" width="40" height="40" as="geometry" />
        </mxCell>
        <mxCell id="DztG8jWdw_vd6ydKxD23-189" value="2" style="ellipse;whiteSpace=wrap;html=1;aspect=fixed;" parent="1" vertex="1">
          <mxGeometry x="1440" y="1990" width="40" height="40" as="geometry" />
        </mxCell>
        <mxCell id="DztG8jWdw_vd6ydKxD23-190" value="3" style="ellipse;whiteSpace=wrap;html=1;aspect=fixed;" parent="1" vertex="1">
          <mxGeometry x="1440" y="2040" width="40" height="40" as="geometry" />
        </mxCell>
        <mxCell id="DztG8jWdw_vd6ydKxD23-191" value="7" style="ellipse;whiteSpace=wrap;html=1;aspect=fixed;" parent="1" vertex="1">
          <mxGeometry x="1310" y="1990" width="40" height="40" as="geometry" />
        </mxCell>
        <mxCell id="DztG8jWdw_vd6ydKxD23-192" value="4" style="ellipse;whiteSpace=wrap;html=1;aspect=fixed;" parent="1" vertex="1">
          <mxGeometry x="1400" y="2080" width="40" height="40" as="geometry" />
        </mxCell>
        <mxCell id="DztG8jWdw_vd6ydKxD23-193" value="5" style="ellipse;whiteSpace=wrap;html=1;aspect=fixed;fillColor=#dae8fc;strokeColor=#6c8ebf;" parent="1" vertex="1">
          <mxGeometry x="1350" y="2080" width="40" height="40" as="geometry" />
        </mxCell>
        <mxCell id="DztG8jWdw_vd6ydKxD23-194" value="6" style="ellipse;whiteSpace=wrap;html=1;aspect=fixed;" parent="1" vertex="1">
          <mxGeometry x="1310" y="2040" width="40" height="40" as="geometry" />
        </mxCell>
        <mxCell id="DztG8jWdw_vd6ydKxD23-195" value="" style="endArrow=classic;html=1;rounded=0;" parent="1" source="DztG8jWdw_vd6ydKxD23-187" target="DztG8jWdw_vd6ydKxD23-192" edge="1">
          <mxGeometry width="50" height="50" relative="1" as="geometry">
            <mxPoint x="1460" y="2210" as="sourcePoint" />
            <mxPoint x="1510" y="2160" as="targetPoint" />
          </mxGeometry>
        </mxCell>
        <mxCell id="DztG8jWdw_vd6ydKxD23-196" value="" style="endArrow=classic;html=1;rounded=0;" parent="1" source="DztG8jWdw_vd6ydKxD23-188" target="DztG8jWdw_vd6ydKxD23-194" edge="1">
          <mxGeometry width="50" height="50" relative="1" as="geometry">
            <mxPoint x="1460" y="2210" as="sourcePoint" />
            <mxPoint x="1510" y="2160" as="targetPoint" />
          </mxGeometry>
        </mxCell>
        <mxCell id="DztG8jWdw_vd6ydKxD23-197" value="" style="endArrow=classic;html=1;rounded=0;" parent="1" source="DztG8jWdw_vd6ydKxD23-189" target="DztG8jWdw_vd6ydKxD23-188" edge="1">
          <mxGeometry width="50" height="50" relative="1" as="geometry">
            <mxPoint x="1460" y="2210" as="sourcePoint" />
            <mxPoint x="1510" y="2160" as="targetPoint" />
          </mxGeometry>
        </mxCell>
        <mxCell id="DztG8jWdw_vd6ydKxD23-198" value="" style="endArrow=classic;html=1;rounded=0;" parent="1" source="DztG8jWdw_vd6ydKxD23-191" target="DztG8jWdw_vd6ydKxD23-189" edge="1">
          <mxGeometry width="50" height="50" relative="1" as="geometry">
            <mxPoint x="1460" y="2210" as="sourcePoint" />
            <mxPoint x="1510" y="2160" as="targetPoint" />
          </mxGeometry>
        </mxCell>
        <mxCell id="DztG8jWdw_vd6ydKxD23-199" value="" style="endArrow=classic;html=1;rounded=0;" parent="1" source="DztG8jWdw_vd6ydKxD23-190" target="DztG8jWdw_vd6ydKxD23-191" edge="1">
          <mxGeometry width="50" height="50" relative="1" as="geometry">
            <mxPoint x="1460" y="2210" as="sourcePoint" />
            <mxPoint x="1510" y="2160" as="targetPoint" />
          </mxGeometry>
        </mxCell>
        <mxCell id="DztG8jWdw_vd6ydKxD23-200" value="" style="endArrow=classic;html=1;rounded=0;" parent="1" source="DztG8jWdw_vd6ydKxD23-192" target="DztG8jWdw_vd6ydKxD23-190" edge="1">
          <mxGeometry width="50" height="50" relative="1" as="geometry">
            <mxPoint x="1460" y="2210" as="sourcePoint" />
            <mxPoint x="1510" y="2160" as="targetPoint" />
          </mxGeometry>
        </mxCell>
        <mxCell id="DztG8jWdw_vd6ydKxD23-201" value="" style="endArrow=classic;html=1;rounded=0;" parent="1" source="DztG8jWdw_vd6ydKxD23-193" target="DztG8jWdw_vd6ydKxD23-187" edge="1">
          <mxGeometry width="50" height="50" relative="1" as="geometry">
            <mxPoint x="1460" y="2210" as="sourcePoint" />
            <mxPoint x="1510" y="2160" as="targetPoint" />
          </mxGeometry>
        </mxCell>
        <mxCell id="DztG8jWdw_vd6ydKxD23-202" value="" style="endArrow=classic;html=1;rounded=0;" parent="1" source="DztG8jWdw_vd6ydKxD23-194" target="DztG8jWdw_vd6ydKxD23-193" edge="1">
          <mxGeometry width="50" height="50" relative="1" as="geometry">
            <mxPoint x="1460" y="2210" as="sourcePoint" />
            <mxPoint x="1510" y="2160" as="targetPoint" />
          </mxGeometry>
        </mxCell>
        <mxCell id="DztG8jWdw_vd6ydKxD23-203" value="1-6-5-0-4-3-7-2-1" style="text;html=1;align=center;verticalAlign=middle;whiteSpace=wrap;rounded=0;" parent="1" vertex="1">
          <mxGeometry x="1130" y="2130" width="120" height="30" as="geometry" />
        </mxCell>
        <mxCell id="DztG8jWdw_vd6ydKxD23-204" value="5-0-4-3-7-2-1-6-5" style="text;html=1;align=center;verticalAlign=middle;whiteSpace=wrap;rounded=0;" parent="1" vertex="1">
          <mxGeometry x="1330" y="2130" width="120" height="30" as="geometry" />
        </mxCell>
        <mxCell id="DztG8jWdw_vd6ydKxD23-205" value="1-6-5-0-4-3-7-2-1" style="text;html=1;align=center;verticalAlign=middle;whiteSpace=wrap;rounded=0;" parent="1" vertex="1">
          <mxGeometry x="1220" y="2170" width="120" height="30" as="geometry" />
        </mxCell>
        <mxCell id="DztG8jWdw_vd6ydKxD23-206" value="5-0-4-3-7-2-1-6-5" style="text;html=1;align=center;verticalAlign=middle;whiteSpace=wrap;rounded=0;" parent="1" vertex="1">
          <mxGeometry x="1241" y="2190" width="120" height="30" as="geometry" />
        </mxCell>
        <mxCell id="DztG8jWdw_vd6ydKxD23-207" value="" style="shape=flexArrow;endArrow=classic;html=1;rounded=0;exitX=0.446;exitY=0.933;exitDx=0;exitDy=0;exitPerimeter=0;entryX=0;entryY=0.25;entryDx=0;entryDy=0;fillColor=#f5f5f5;strokeColor=#666666;" parent="1" source="DztG8jWdw_vd6ydKxD23-203" target="DztG8jWdw_vd6ydKxD23-205" edge="1">
          <mxGeometry width="50" height="50" relative="1" as="geometry">
            <mxPoint x="1260" y="2210" as="sourcePoint" />
            <mxPoint x="1310" y="2160" as="targetPoint" />
          </mxGeometry>
        </mxCell>
        <mxCell id="DztG8jWdw_vd6ydKxD23-208" value="" style="shape=flexArrow;endArrow=classic;html=1;rounded=0;exitX=0.5;exitY=1;exitDx=0;exitDy=0;entryX=1;entryY=0;entryDx=0;entryDy=0;fillColor=#f5f5f5;strokeColor=#666666;" parent="1" source="DztG8jWdw_vd6ydKxD23-204" target="DztG8jWdw_vd6ydKxD23-206" edge="1">
          <mxGeometry width="50" height="50" relative="1" as="geometry">
            <mxPoint x="1260" y="2210" as="sourcePoint" />
            <mxPoint x="1310" y="2160" as="targetPoint" />
          </mxGeometry>
        </mxCell>
      </root>
    </mxGraphModel>
  </diagram>
</mxfile>
